<svg xmlns="http://www.w3.org/2000/svg" viewBox="0 0 66 59"><defs><style>.cls-1{fill:#eaeaea;}.cls-1,.cls-2,.cls-3,.cls-4{stroke:#4c4d4d;}.cls-2{fill:#fff;}.cls-3{fill:none;stroke-linecap:square;}.cls-4{fill:#4cc1f0;}</style></defs><g id="Layer_2" data-name="Layer 2"><g id="Layer_1-2" data-name="Layer 1"><g id="Website"><g id="homepage"><g id="_8-services" data-name="8-services"><g id="Group-4"><g id="Group-14"><g id="Group-9"><g id="Group-2-Copy"><g id="Group-10"><rect id="Rectangle" class="cls-1" x="46.89" y="39.17" width="17.22" height="19.33"/><rect id="Rectangle-Copy-11" class="cls-1" x="42.97" y="0.5" width="19.64" height="56.38"/><rect id="Rectangle-2" data-name="Rectangle" class="cls-2" x="45.86" y="0.5" width="19.64" height="56.38"/><rect id="Rectangle-Copy" class="cls-2" x="47.93" y="45.6" width="15.5" height="8.46"/><rect id="Rectangle-Copy-2" class="cls-2" x="47.93" y="37.15" width="15.5" height="8.46"/><rect id="Rectangle-Copy-3" class="cls-2" x="47.93" y="28.69" width="15.5" height="8.46"/><rect id="Rectangle-Copy-4" class="cls-2" x="47.93" y="20.23" width="15.5" height="8.46"/><rect id="Rectangle-Copy-5" class="cls-2" x="47.93" y="11.78" width="15.5" height="8.46"/><rect id="Rectangle-Copy-6" class="cls-2" x="47.93" y="3.32" width="15.5" height="8.46"/></g><g id="Group-3"><line id="Line" class="cls-3" x1="54.5" y1="23.76" x2="58.93" y2="23.76"/><line id="Line-Copy" class="cls-3" x1="54.5" y1="32.21" x2="58.93" y2="32.21"/><line id="Line-Copy-5" class="cls-3" x1="54.5" y1="5.43" x2="58.93" y2="5.43"/><line id="Line-Copy-4" class="cls-3" x1="54.5" y1="13.89" x2="58.93" y2="13.89"/><line id="Line-Copy-2" class="cls-3" x1="54.5" y1="40.67" x2="58.93" y2="40.67"/><line id="Line-Copy-3" class="cls-3" x1="54.5" y1="49.13" x2="58.93" y2="49.13"/></g><g id="Group-3-Copy"><line id="Line-2" data-name="Line" class="cls-3" x1="52.14" y1="5.43" x2="52.65" y2="5.43"/><line id="Line-Copy-2-2" data-name="Line-Copy" class="cls-3" x1="52.14" y1="13.89" x2="52.65" y2="13.89"/><line id="Line-Copy-7" class="cls-3" x1="52.14" y1="23.76" x2="52.65" y2="23.76"/><line id="Line-Copy-6" class="cls-3" x1="52.14" y1="32.21" x2="52.65" y2="32.21"/><line id="Line-Copy-2-3" data-name="Line-Copy-2" class="cls-3" x1="52.14" y1="40.67" x2="52.65" y2="40.67"/><line id="Line-Copy-3-2" data-name="Line-Copy-3" class="cls-3" x1="52.14" y1="49.13" x2="52.65" y2="49.13"/></g></g><g id="Group-2-Copy-2"><g id="Group-10-2" data-name="Group-10"><rect id="Rectangle-3" data-name="Rectangle" class="cls-1" x="25.64" y="39.17" width="17.22" height="19.33"/><rect id="Rectangle-Copy-11-2" data-name="Rectangle-Copy-11" class="cls-1" x="21.71" y="0.5" width="19.64" height="56.38"/><rect id="Rectangle-4" data-name="Rectangle" class="cls-2" x="24.6" y="0.5" width="19.64" height="56.38"/><rect id="Rectangle-Copy-2-2" data-name="Rectangle-Copy" class="cls-2" x="26.67" y="45.6" width="15.5" height="8.46"/><rect id="Rectangle-Copy-2-3" data-name="Rectangle-Copy-2" class="cls-2" x="26.67" y="37.15" width="15.5" height="8.46"/><rect id="Rectangle-Copy-3-2" data-name="Rectangle-Copy-3" class="cls-2" x="26.67" y="28.69" width="15.5" height="8.46"/><rect id="Rectangle-Copy-4-2" data-name="Rectangle-Copy-4" class="cls-2" x="26.67" y="20.23" width="15.5" height="8.46"/><rect id="Rectangle-Copy-5-2" data-name="Rectangle-Copy-5" class="cls-2" x="26.67" y="11.78" width="15.5" height="8.46"/><rect id="Rectangle-Copy-6-2" data-name="Rectangle-Copy-6" class="cls-2" x="26.67" y="3.32" width="15.5" height="8.46"/></g><g id="Group-3-2" data-name="Group-3"><line id="Line-3" data-name="Line" class="cls-3" x1="33.24" y1="23.76" x2="37.67" y2="23.76"/><line id="Line-Copy-3-3" data-name="Line-Copy" class="cls-3" x1="33.24" y1="32.21" x2="37.67" y2="32.21"/><line id="Line-Copy-5-2" data-name="Line-Copy-5" class="cls-3" x1="33.24" y1="5.43" x2="37.67" y2="5.43"/><line id="Line-Copy-4-2" data-name="Line-Copy-4" class="cls-3" x1="33.24" y1="13.89" x2="37.67" y2="13.89"/><line id="Line-Copy-2-4" data-name="Line-Copy-2" class="cls-3" x1="33.24" y1="40.67" x2="37.67" y2="40.67"/><line id="Line-Copy-3-4" data-name="Line-Copy-3" class="cls-3" x1="33.24" y1="49.13" x2="37.67" y2="49.13"/></g><g id="Group-3-Copy-2" data-name="Group-3-Copy"><line id="Line-4" data-name="Line" class="cls-3" x1="30.88" y1="5.43" x2="31.4" y2="5.43"/><line id="Line-Copy-4-3" data-name="Line-Copy" class="cls-3" x1="30.88" y1="13.89" x2="31.4" y2="13.89"/><line id="Line-Copy-7-2" data-name="Line-Copy-7" class="cls-3" x1="30.88" y1="23.76" x2="31.4" y2="23.76"/><line id="Line-Copy-6-2" data-name="Line-Copy-6" class="cls-3" x1="30.88" y1="32.21" x2="31.4" y2="32.21"/><line id="Line-Copy-2-5" data-name="Line-Copy-2" class="cls-3" x1="30.88" y1="40.67" x2="31.4" y2="40.67"/><line id="Line-Copy-3-5" data-name="Line-Copy-3" class="cls-3" x1="30.88" y1="49.13" x2="31.4" y2="49.13"/></g></g><g id="Group-2"><rect id="Rectangle-5" data-name="Rectangle" class="cls-1" x="4.01" y="39.17" width="17.22" height="19.33"/><rect id="Rectangle-Copy-10" class="cls-1" x="0.98" y="39.17" width="3.04" height="19.33"/><rect id="Rectangle-6" data-name="Rectangle" class="cls-2" x="3.44" y="18.65" width="19.64" height="39.47"/><rect id="Rectangle-Copy-12" class="cls-1" x="0.5" y="18.65" width="2.89" height="39.47"/><rect id="Rectangle-Copy-3-3" data-name="Rectangle-Copy" class="cls-2" x="5.5" y="46.84" width="15.5" height="8.46"/><rect id="Rectangle-Copy-2-4" data-name="Rectangle-Copy-2" class="cls-2" x="5.5" y="38.39" width="15.5" height="8.46"/><rect id="Rectangle-Copy-3-4" data-name="Rectangle-Copy-3" class="cls-2" x="5.5" y="29.93" width="15.5" height="8.46"/><rect id="Rectangle-Copy-7" class="cls-2" x="5.5" y="21.47" width="15.5" height="8.46"/><g id="paper"><rect id="Rectangle-Copy-9" class="cls-2" x="8.27" y="12.57" width="12.73" height="17.36"/><line id="Line-3-2" data-name="Line-3" class="cls-3" x1="10.09" y1="14.76" x2="19.35" y2="14.76"/><line id="Line-3-Copy" class="cls-3" x1="10.09" y1="16.34" x2="19.35" y2="16.34"/><line id="Line-3-Copy-2" class="cls-3" x1="10.09" y1="17.92" x2="19.35" y2="17.92"/><line id="Line-3-Copy-3" class="cls-3" x1="10.09" y1="19.5" x2="19.35" y2="19.5"/></g><g id="paper-copy"><rect id="Rectangle-Copy-9-2" data-name="Rectangle-Copy-9" class="cls-2" x="11.17" y="14.14" width="12.73" height="15.79"/><line id="Line-3-3" data-name="Line-3" class="cls-3" x1="12.99" y1="16.34" x2="22.25" y2="16.34"/><line id="Line-3-Copy-2-2" data-name="Line-3-Copy" class="cls-3" x1="12.99" y1="17.92" x2="22.25" y2="17.92"/><line id="Line-3-Copy-2-3" data-name="Line-3-Copy-2" class="cls-3" x1="12.99" y1="19.5" x2="22.25" y2="19.5"/></g><rect id="Rectangle-Copy-8" class="cls-1" x="5.5" y="23.62" width="15.5" height="6.31"/><rect id="Rectangle-Copy-4-3" data-name="Rectangle-Copy-4" class="cls-4" x="10.71" y="21.47" width="15.5" height="8.46"/><line id="Line-5" data-name="Line" class="cls-3" x1="15.36" y1="24.29" x2="21.57" y2="24.29"/><line id="Line-Copy-5-3" data-name="Line-Copy" class="cls-3" x1="10.15" y1="32.75" x2="16.36" y2="32.75"/><line id="Line-Copy-2-6" data-name="Line-Copy-2" class="cls-3" x1="10.15" y1="41.21" x2="16.36" y2="41.21"/><line id="Line-Copy-3-6" data-name="Line-Copy-3" class="cls-3" x1="10.15" y1="49.66" x2="16.36" y2="49.66"/></g></g></g></g></g></g></g></g></g></svg>